HIERARCHY
ROOT Hips
{
	OFFSET	0.00	0.00	0.00
	CHANNELS 6 Xposition Yposition Zposition Zrotation Xrotation Yrotation
	JOINT LeftUpLeg
	{
		OFFSET	 0.126116	-0.065224	 0.014019
		CHANNELS 3 Zrotation Xrotation Yrotation
		JOINT LeftLeg
		{
			OFFSET	 0.000000	 0.569914	 0.000000
			CHANNELS 3 Zrotation Xrotation Yrotation
			JOINT LeftFoot
			{
				OFFSET	 0.000000	 0.544423	 0.000000
				CHANNELS 3 Zrotation Xrotation Yrotation
				JOINT LeftToeBase
				{
					OFFSET	 0.000000	 0.207117	 0.000000
					CHANNELS 3 Zrotation Xrotation Yrotation
					End Site
					{
						OFFSET	 0.000000	 0.207117	 0.000000
					}
				}
			}
		}
	}
	JOINT RightUpLeg
	{
		OFFSET	-0.124023	-0.065224	 0.008373
		CHANNELS 3 Zrotation Xrotation Yrotation
		JOINT RightLeg
		{
			OFFSET	 0.000000	 0.570047	 0.000000
			CHANNELS 3 Zrotation Xrotation Yrotation
			JOINT RightFoot
			{
				OFFSET	 0.000000	 0.544354	 0.000000
				CHANNELS 3 Zrotation Xrotation Yrotation
				JOINT RightToeBase
				{
					OFFSET	 0.000000	 0.207540	 0.000000
					CHANNELS 3 Zrotation Xrotation Yrotation
					End Site
					{
						OFFSET	 0.000000	 0.207540	 0.000000
					}
				}
			}
		}
	}
	JOINT Spine
	{
		OFFSET	 0.000184	 0.117403	 0.007763
		CHANNELS 3 Zrotation Xrotation Yrotation
		JOINT Spine1
		{
			OFFSET	 0.000000	 0.137269	 0.000000
			CHANNELS 3 Zrotation Xrotation Yrotation
			JOINT Spine2
			{
				OFFSET	 0.000000	 0.156879	 0.000000
				CHANNELS 3 Zrotation Xrotation Yrotation
				JOINT LeftShoulder
				{
					OFFSET	 0.080501	 0.160143	 0.002496
					CHANNELS 3 Zrotation Xrotation Yrotation
					JOINT LeftArm
					{
						OFFSET	 0.000000	 0.164363	 0.000000
						CHANNELS 3 Zrotation Xrotation Yrotation
						JOINT LeftForeArm
						{
							OFFSET	 0.000000	 0.364576	 0.000000
							CHANNELS 3 Zrotation Xrotation Yrotation
							JOINT LeftHand
							{
								OFFSET	 0.000000	 0.360812	 0.000000
								CHANNELS 3 Zrotation Xrotation Yrotation
								JOINT LeftHandIndex1
								{
									OFFSET	 0.000000	 0.086006	 0.000000
									CHANNELS 3 Zrotation Xrotation Yrotation
									JOINT LeftHandIndex2
									{
										OFFSET	 0.000000	 0.047237	 0.000000
										CHANNELS 3 Zrotation Xrotation Yrotation
										JOINT LeftHandIndex3
										{
											OFFSET	-0.004284	 0.038165	 0.000551
											CHANNELS 3 Zrotation Xrotation Yrotation
											End Site
											{
												OFFSET	-0.004284	 0.038165	 0.000551
											}
										}
									}
								}
							}
						}
					}
				}
				JOINT Neck
				{
					OFFSET	 0.000000	 0.176489	 0.000000
					CHANNELS 3 Zrotation Xrotation Yrotation
					JOINT Head
					{
						OFFSET	 0.000000	 0.077941	 0.001747
						CHANNELS 3 Zrotation Xrotation Yrotation
						End Site
						{
							OFFSET	 0.000000	 0.077941	 0.001747
						}
					}
				}
				JOINT RightShoulder
				{
					OFFSET	-0.080363	 0.159706	-0.000306
					CHANNELS 3 Zrotation Xrotation Yrotation
					JOINT RightArm
					{
						OFFSET	 0.000000	 0.164196	 0.000000
						CHANNELS 3 Zrotation Xrotation Yrotation
						JOINT RightForeArm
						{
							OFFSET	 0.000000	 0.365611	 0.000000
							CHANNELS 3 Zrotation Xrotation Yrotation
							JOINT RightHand
							{
								OFFSET	 0.000000	 0.360648	 0.000000
								CHANNELS 3 Zrotation Xrotation Yrotation
								JOINT RightHandIndex1
								{
									OFFSET	 0.000000	 0.069977	 0.000000
									CHANNELS 3 Zrotation Xrotation Yrotation
									JOINT RightHandIndex2
									{
										OFFSET	 0.000000	 0.052305	 0.000000
										CHANNELS 3 Zrotation Xrotation Yrotation
										JOINT RightHandIndex3
										{
											OFFSET	 0.009002	 0.042196	 0.000782
											CHANNELS 3 Zrotation Xrotation Yrotation
											End Site
											{
												OFFSET	 0.009002	 0.042196	 0.000782
											}
										}
									}
								}
							}
						}
					}
				}
			}
		}
	}
}
MOTION
Frames:    12
Frame Time: 0.03333334
-0.015755	 1.255299	 0.114913	 4.020142	 0.099223	 174.202900	-171.346800	 16.058980	 7.839248	 2.386546	-24.305910	 1.179142	 45.993020	 46.398980	-62.839960	 4.912829	 28.009690	-6.307227	-173.323200	 5.684327	-1.610954	-1.832611	-20.358050	 1.631109	-58.186940	 58.441690	 64.923970	-0.394045	 31.193110	 1.650446	 1.266556	 4.464896	-0.628006	 6.823510	 4.029479	-0.162751	-4.794656	-1.233475	 3.915886	-112.467000	 3.007725	 88.297670	-1.428587	 52.943710	 27.744160	 14.751330	-0.765018	 0.761552	 0.694896	-5.249540	-44.474560	-7.903587	 12.602530	-5.861418	-7.229256	 12.642470	 2.801070	 4.963066	-4.014628	-0.346955	 1.419023	-13.764140	 1.403873	-1.900535	 9.120469	-27.642380	 109.005400	 0.766473	-88.641690	-13.617480	 62.261910	 13.398070	-5.151156	-0.514604	 40.979940	-10.639020	-0.325277	-55.262210	 1.917121	 8.043117	 8.958150	 15.203280	 20.305900	-6.359768	-8.239867	-2.131385	 0.447455
-0.016289	 1.254031	 0.113357	 3.638101	-0.241024	 174.684100	-171.981500	 16.698380	 8.396552	 2.439839	-24.783860	 1.406117	 46.495870	 46.343950	-63.373750	 4.912846	 28.009780	-6.307153	-173.720100	 6.548949	-1.134768	-1.941718	-21.462190	 1.105409	-59.443160	 58.396140	 66.468700	-0.438430	 31.247270	 1.694464	 1.255901	 4.523802	-1.199477	 5.819564	 1.418693	-0.469602	-3.318977	 0.583507	 3.826845	-112.215200	 2.692008	 88.255460	 5.161214	 56.190290	 21.800960	 5.333496	-0.266830	 0.898407	 3.838192	-6.843548	-42.121490	-7.612760	 12.840260	-5.934386	-7.230581	 12.587240	 2.793530	 4.963066	-4.014628	-0.346955	 1.158464	-13.369360	 1.538208	-1.731684	 10.415180	-28.434020	 108.690800	 1.007684	-88.762750	-14.171410	 61.939860	 14.838560	-5.272160	-0.615259	 39.975620	-7.260669	-0.477038	-56.893310	 1.667473	 7.369009	 8.949657	 15.204380	 20.455420	-6.400717	-8.239867	-2.131385	 0.447455
-0.016886	 1.252986	 0.111154	 3.146525	-0.597315	 175.220500	-172.757100	 17.258310	 8.999904	 2.476535	-25.110680	 1.622810	 46.988580	 46.266950	-63.845620	 4.912862	 28.009870	-6.307076	-174.256100	 7.368332	-0.636184	-2.046470	-22.506550	 0.611553	-60.704180	 58.332540	 68.029930	-0.484493	 31.303340	 1.740147	 1.173195	 4.599147	-1.945756	 4.865345	-1.680195	-1.034986	-1.889219	 2.615826	 3.847857	-111.954500	 2.364697	 88.213200	 3.510296	 57.829720	 22.588460	 5.447103	-0.262752	 1.130004	 2.169672	-8.286366	-40.170070	-7.310809	 13.086190	-6.011370	-7.231961	 12.530020	 2.785720	 4.963066	-4.014628	-0.346955	 0.887922	-12.960940	 1.679116	-1.527463	 11.753190	-29.227610	 108.365300	 1.258275	-88.886760	-13.954620	 61.794960	 15.608810	-6.126429	-0.782921	 38.934240	-3.428473	-1.005781	-59.026460	 1.409047	 6.670504	 8.937752	 15.205630	 20.610330	-6.443189	-8.239867	-2.131385	 0.447455
-0.017049	 1.252459	 0.109909	 2.801380	-0.776610	 175.497800	-173.247100	 17.492190	 9.326114	 2.484869	-25.184700	 1.726783	 47.220180	 46.194580	-64.054950	 4.912870	 28.009920	-6.307036	-174.624000	 7.817758	-0.379314	-2.108414	-23.116810	 0.368772	-61.408400	 58.322060	 68.898340	-0.508458	 31.332470	 1.763915	 1.158673	 4.711768	-2.605724	 3.855214	-3.591760	-1.568833	-0.624743	 4.014272	 4.243650	-111.819300	 2.194534	 88.191830	 2.701601	 58.905630	 23.041110	 5.492768	-0.259885	 1.250106	 0.418290	-9.445162	-40.038330	-7.153665	 13.213810	-6.051925	-7.232681	 12.500290	 2.781661	 4.963066	-4.014628	-0.346955	 0.747115	-12.748980	 1.753021	-1.381737	 12.548180	-29.544010	 108.196400	 1.388756	-88.950630	-15.053410	 61.330420	 17.068040	-5.463043	-0.766532	 38.405690	-1.214878	-0.652136	-60.924450	 1.274846	 6.307564	 8.930321	 15.206330	 20.690820	-6.465274	-8.239867	-2.131385	 0.447455
-0.016772	 1.252358	 0.109704	 2.587137	-0.838946	 175.566200	-173.471600	 17.508850	 9.413651	 2.469819	-25.050930	 1.744497	 47.217940	 46.113630	-64.031300	 4.912872	 28.009930	-6.307027	-174.824400	 8.020653	-0.325581	-2.136321	-23.389940	 0.306049	-61.674370	 58.338310	 69.217510	-0.514307	 31.339570	 1.769716	 1.201282	 4.824946	-3.230849	 2.763974	-4.408375	-2.021831	 0.532961	 4.837934	 5.035572	-111.786300	 2.153026	 88.186680	 2.842346	 59.469780	 22.945820	 5.483388	-0.258151	 1.279300	-1.496660	-10.324760	-41.518390	-7.115309	 13.244930	-6.061875	-7.232857	 12.493030	 2.780671	 4.963066	-4.014628	-0.346955	 0.712746	-12.697310	 1.771119	-1.301129	 12.905670	-29.444030	 108.155200	 1.420626	-88.966180	-15.332340	 60.957790	 17.429360	-5.466617	-0.777624	 38.275570	 0.460575	 0.044411	-62.823830	 1.242119	 6.219038	 8.928377	 15.206500	 20.710450	-6.470664	-8.239867	-2.131385	 0.447455
-0.016223	 1.252544	 0.110235	 2.485209	-0.830753	 175.488400	-173.490300	 17.400070	 9.330980	 2.441646	-24.799890	 1.704263	 47.061760	 46.034630	-63.858560	 4.912870	 28.009920	-6.307038	-174.885000	 8.060595	-0.414621	-2.139470	-23.420660	 0.365664	-61.627530	 58.372170	 69.146270	-0.507427	 31.331210	 1.762892	 1.277217	 4.911554	-3.819931	 1.736606	-4.410203	-2.354139	 1.489693	 5.182743	 6.087907	-111.825100	 2.201854	 88.192750	 3.608236	 59.621920	 22.466930	 5.436996	-0.257225	 1.244706	-3.374025	-10.884480	-44.081380	-7.160428	 13.208330	-6.050174	-7.232650	 12.501570	 2.781836	 4.963066	-4.014628	-0.346955	 0.753175	-12.758090	 1.749833	-1.279498	 12.936560	-29.055600	 108.203700	 1.383147	-88.947890	-15.480940	 60.609810	 17.416350	-5.432339	-0.761813	 38.429050	 1.401757	 1.112951	-64.705230	 1.280617	 6.323174	 8.930657	 15.206300	 20.687360	-6.464324	-8.239867	-2.131385	 0.447455
-0.015345	 1.253022	 0.111461	 2.463666	-0.770678	 175.270200	-173.333200	 17.168500	 9.087395	 2.396508	-24.395540	 1.605229	 46.744870	 45.940610	-63.526330	 4.912863	 28.009880	-6.307069	-174.835300	 7.978572	-0.644141	-2.122306	-23.252910	 0.547020	-61.300290	 58.434310	 68.725340	-0.488248	 31.307910	 1.743871	 1.401095	 4.975188	-4.581776	 0.560514	-3.736673	-2.651094	 2.456139	 5.181558	 7.687299	-111.933300	 2.338014	 88.209820	 4.980278	 59.452550	 21.626800	 5.350440	-0.256836	 1.148309	-5.681493	-11.222590	-48.346270	-7.286189	 13.106200	-6.017702	-7.232073	 12.525360	 2.785083	 4.963066	-4.014628	-0.346955	 0.865861	-12.927700	 1.690669	-1.306823	 12.699190	-28.313960	 108.338800	 1.278725	-88.896790	-15.522760	 60.220680	 17.063620	-5.354629	-0.718954	 38.857490	 1.933459	 2.803903	-67.227840	 1.388007	 6.613613	 8.936644	 15.205740	 20.622950	-6.446650	-8.239867	-2.131385	 0.447455
-0.014316	 1.253713	 0.113101	 2.523242	-0.666809	 174.937200	-173.031900	 16.840310	 8.716423	 2.341646	-23.900430	 1.457013	 46.321950	 45.851770	-63.091560	 4.912852	 28.009820	-6.307118	-174.688800	 7.774815	-0.985266	-2.086541	-22.901970	 0.841525	-60.723070	 58.529560	 67.996830	-0.459029	 31.272360	 1.714893	 1.535814	 4.983881	-5.489231	-0.540260	-2.491215	-2.876065	 3.224845	 4.796268	 9.712627	-112.098500	 2.545577	 88.236370	 6.588692	 58.972840	 20.702870	 5.235230	-0.257192	 1.001305	-8.093936	-11.176160	-53.987130	-7.477742	 12.950340	-5.968657	-7.231197	 12.561640	 2.790036	 4.963066	-4.014628	-0.346955	 1.037492	-13.186550	 1.601036	-1.383198	 12.212280	-27.291980	 108.545100	 1.119713	-88.818400	-15.409080	 59.878860	 16.378800	-5.246648	-0.653194	 39.512550	 1.964650	 4.943528	-70.291630	 1.551822	 7.056490	 8.944722	 15.204920	 20.524730	-6.419714	-8.239867	-2.131385	 0.447455
-0.013270	 1.254515	 0.114841	 2.651403	-0.519566	 174.501100	-172.629000	 16.433250	 8.240173	 2.285111	-23.386310	 1.262804	 45.846710	 45.799500	-62.615110	 4.912839	 28.009740	-6.307182	-174.469500	 7.453867	-1.424141	-2.037008	-22.412910	 1.257384	-59.933070	 58.683930	 67.013820	-0.420763	 31.225720	 1.676943	 1.645757	 4.925927	-6.591144	-1.433715	-0.826659	-3.067308	 3.687612	 4.049111	 12.177460	-112.315300	 2.817641	 88.272070	 8.070896	 58.245220	 20.009930	 5.090741	-0.258024	 0.808486	-10.474660	-10.672430	-61.033320	-7.728535	 12.745720	-5.905200	-7.230052	 12.609210	 2.796530	 4.963066	-4.014628	-0.346955	 1.262191	-13.526360	 1.484568	-1.504578	 11.487180	-26.008260	 108.815900	 0.911634	-88.714740	-15.113310	 59.629110	 15.361740	-5.111738	-0.565273	 40.375350	 1.547361	 7.487462	-74.032360	 1.766765	 7.637212	 8.953388	 15.203930	 20.395930	-6.384421	-8.239867	-2.131385	 0.447455
-0.012449	 1.255216	 0.116130	 2.826560	-0.341866	 173.998000	-172.201300	 16.016450	 7.710951	 2.244830	-23.017450	 1.038333	 45.428650	 45.844950	-62.224760	 4.912823	 28.009660	-6.307256	-174.216800	 7.056417	-1.922227	-1.985542	-21.900890	 1.782830	-59.037260	 58.935400	 65.922420	-0.376550	 31.171730	 1.633096	 1.692163	 4.797767	-7.904705	-1.921137	 0.946670	-3.312496	 3.718797	 3.043109	 15.009110	-112.566500	 3.132265	 88.314700	 8.925899	 57.424340	 19.959530	 4.924907	-0.259094	 0.573315	-12.576680	-9.720815	-69.241880	-8.018188	 12.508620	-5.832983	-7.228735	 12.664260	 2.804046	 4.963066	-4.014628	-0.346955	 1.521697	-13.920080	 1.351312	-1.657435	 10.579150	-24.540840	 109.129700	 0.671497	-88.593570	-14.597200	 59.520840	 14.039670	-4.963250	-0.460997	 41.390550	 0.847030	 10.280370	-78.490340	 2.015709	 8.309100	 8.960688	 15.202880	 20.246900	-6.343620	-8.239867	-2.131385	 0.447455
-0.012938	 1.253425	 0.114555	 2.416770	-0.736942	 174.615500	-172.845700	 16.804330	 8.378431	 2.307945	-23.594380	 1.314662	 45.900840	 45.810150	-62.773600	 4.912842	 28.009770	-6.307166	-174.641000	 8.107135	-1.340236	-2.122297	-23.252810	 1.123820	-60.614040	 58.801490	 67.847390	-0.430132	 31.237150	 1.686234	 1.763770	 4.977245	-9.472644	-3.996080	-0.566671	-4.259079	 5.749299	 4.562090	 17.065220	-112.262200	 2.751000	 88.263240	 10.430830	 58.269510	 17.817450	 5.094084	-0.256123	 0.276811	-16.731080	-9.830070	-70.712540	-7.667140	 12.795870	-5.920655	-7.230332	 12.597560	 2.794939	 4.963066	-4.014628	-0.346955	 1.207186	-13.443080	 1.512986	-1.453818	 12.056490	-24.903630	 108.749500	 0.962563	-88.740230	-13.790980	 59.122990	 14.397280	-5.101546	-0.583071	 40.742680	 4.880995	 11.336530	-84.501190	 1.714097	 7.494962	 8.951470	 15.204160	 20.427480	-6.393063	-8.239867	-2.131385	 0.447455
-0.014080	 1.250693	 0.111579	 1.993372	-1.192489	 175.296800	-173.617400	 17.806420	 9.167473	 2.420811	-24.613530	 1.622879	 46.613490	 45.939650	-63.654280	 4.912863	 28.009880	-6.307067	-175.132900	 9.324192	-0.674439	-2.300006	-24.969250	 0.457832	-62.489520	 58.789110	 70.167610	-0.490038	 31.310080	 1.745647	 1.804492	 5.149905	-10.922860	-6.068782	-2.132668	-5.180864	 7.763667	 6.167453	 19.058690	-111.923200	 2.325311	 88.208230	 12.501070	 58.984180	 14.980560	 5.293186	-0.253450	-0.053569	-20.969090	-9.727416	-71.380810	-7.274451	 13.115740	-6.020723	-7.232128	 12.523140	 2.784780	 4.963066	-4.014628	-0.346955	 0.855345	-12.911870	 1.696180	-1.200415	 13.583810	-25.388770	 108.326200	 1.288476	-88.901600	-12.267200	 58.719070	 14.246020	-5.259880	-0.713545	 40.028700	 8.807913	 12.169110	-90.510490	 1.377980	 6.586496	 8.936108	 15.205790	 20.628960	-6.448300	-8.239867	-2.131385	 0.447455
